# Blender v2.80 (sub 75) OBJ File: ''
# www.blender.org
mtllib Rink.mtl
o Cube
v -25.987207 -0.337201 80.173790
v -33.556095 -0.337201 79.056778
v -41.229057 -0.337201 76.698715
v -47.645649 -0.337201 73.517708
v -51.238491 -0.337201 70.852043
v -55.525917 -0.337201 66.091331
v -58.704159 -0.337201 60.398472
v -60.209702 -0.337201 54.782833
v -56.108765 6.081607 51.051529
v -54.705765 6.081607 56.284683
v -51.743992 6.081607 61.589798
v -47.748585 6.081607 66.026253
v -44.400455 6.081607 68.510353
v -38.420902 6.081607 71.474701
v -31.270555 6.081607 73.672150
v -24.217192 6.081607 74.713089
v -60.209702 -0.337201 -54.782833
v -58.704159 -0.337201 -60.398472
v -55.525917 -0.337201 -66.091331
v -51.238483 -0.337201 -70.852043
v -47.645645 -0.337201 -73.517708
v -41.229053 -0.337201 -76.698715
v -33.556095 -0.337201 -79.056778
v -25.987207 -0.337201 -80.173790
v -24.217192 6.081607 -74.713089
v -31.270555 6.081607 -73.672150
v -38.420906 6.081607 -71.474701
v -44.400459 6.081607 -68.510353
v -47.748589 6.081607 -66.026253
v -51.743996 6.081607 -61.589798
v -54.705765 6.081607 -56.284683
v -56.108765 6.081607 -51.051529
v 60.209709 -0.337201 54.782833
v 58.704166 -0.337201 60.398472
v 55.525917 -0.337201 66.091331
v 51.238483 -0.337201 70.852043
v 47.645645 -0.337201 73.517708
v 41.229053 -0.337201 76.698715
v 33.556095 -0.337201 79.056778
v 25.987206 -0.337201 80.173790
v 24.217192 6.081607 74.713089
v 31.270555 6.081607 73.672150
v 38.420906 6.081607 71.474701
v 44.400459 6.081607 68.510353
v 47.748589 6.081607 66.026253
v 51.743996 6.081607 61.589798
v 54.705765 6.081607 56.284683
v 56.108765 6.081607 51.051529
v 25.987206 -0.337201 -80.173790
v 33.556095 -0.337201 -79.056778
v 41.229057 -0.337201 -76.698715
v 47.645649 -0.337201 -73.517708
v 51.238487 -0.337201 -70.852043
v 55.525917 -0.337201 -66.091331
v 58.704166 -0.337201 -60.398472
v 60.209709 -0.337201 -54.782833
v 56.108765 6.081607 -51.051529
v 54.705765 6.081607 -56.284683
v 51.743992 6.081607 -61.589798
v 47.748585 6.081607 -66.026253
v 44.400455 6.081607 -68.510353
v 38.420902 6.081607 -71.474701
v 31.270555 6.081607 -73.672150
v 24.217192 6.081607 -74.713089
v -23.987247 6.081607 74.003670
v -30.973639 6.081607 72.972618
v -38.056091 6.081607 70.796036
v -43.978867 6.081607 67.859833
v -54.186325 6.081607 55.750248
v -55.576004 6.081607 50.566784
v -47.295204 6.081607 65.399323
v -51.252674 6.081607 61.004990
v -30.973639 6.081607 -72.972618
v -23.987247 6.081607 -74.003670
v -43.978870 6.081607 -67.859833
v -38.056095 6.081607 -70.796036
v -55.576004 6.081607 -50.566784
v -54.186325 6.081607 -55.750248
v -51.252678 6.081607 -61.004990
v -47.295208 6.081607 -65.399323
v 54.186325 6.081607 -55.750248
v 55.576004 6.081607 -50.566784
v 47.295204 6.081607 -65.399323
v 51.252674 6.081607 -61.004990
v 23.987247 6.081607 -74.003670
v 30.973639 6.081607 -72.972618
v 38.056091 6.081607 -70.796036
v 43.978867 6.081607 -67.859833
v 30.973639 6.081607 72.972618
v 23.987247 6.081607 74.003670
v 43.978870 6.081607 67.859833
v 38.056095 6.081607 70.796036
v 55.576004 6.081607 50.566784
v 54.186325 6.081607 55.750248
v 51.252678 6.081607 61.004990
v 47.295208 6.081607 65.399323
v -23.987247 1.019860 74.003670
v -30.973639 1.019860 72.972618
v -38.056091 1.019860 70.796036
v -43.978867 1.019860 67.859833
v -54.186325 1.019860 55.750248
v -55.576004 1.019860 50.566784
v -47.295204 1.019860 65.399323
v -51.252674 1.019860 61.004990
v -30.973639 1.019860 -72.972618
v -23.987247 1.019860 -74.003670
v -43.978870 1.019860 -67.859833
v -38.056095 1.019860 -70.796036
v -55.576004 1.019860 -50.566784
v -54.186325 1.019860 -55.750248
v -51.252678 1.019860 -61.004990
v -47.295208 1.019860 -65.399323
v 54.186325 1.019860 -55.750248
v 55.576004 1.019860 -50.566784
v 47.295204 1.019860 -65.399323
v 51.252674 1.019860 -61.004990
v 23.987247 1.019860 -74.003670
v 30.973639 1.019860 -72.972618
v 38.056091 1.019860 -70.796036
v 43.978867 1.019860 -67.859833
v 30.973639 1.019860 72.972618
v 23.987247 1.019860 74.003670
v 43.978870 1.019860 67.859833
v 38.056095 1.019860 70.796036
v 55.576004 1.019860 50.566784
v 54.186325 1.019860 55.750248
v 51.252678 1.019860 61.004990
v 47.295208 1.019860 65.399323
vt 0.625000 0.495909
vt 0.625000 0.484294
vt 0.625000 0.484294
vt 0.625000 0.495909
vt 0.625000 0.527706
vt 0.375000 0.527706
vt 0.375000 0.512232
vt 0.625000 0.512232
vt 0.625000 0.303593
vt 0.375000 0.303593
vt 0.375000 0.283987
vt 0.625000 0.283987
vt 0.375000 0.222294
vt 0.625000 0.222294
vt 0.625000 0.237768
vt 0.375000 0.237768
vt 0.625000 0.803593
vt 0.375000 0.803593
vt 0.375000 0.783987
vt 0.625000 0.783987
vt 0.375000 0.973916
vt 0.625000 0.973916
vt 0.625000 0.981375
vt 0.375000 0.981375
vt 0.375000 0.722294
vt 0.625000 0.722294
vt 0.625000 0.737768
vt 0.375000 0.737768
vt 0.625000 0.765706
vt 0.375000 0.765706
vt 0.375000 0.754091
vt 0.625000 0.754091
vt 0.625000 0.032574
vt 0.375000 0.032574
vt 0.375000 0.027374
vt 0.625000 0.027374
vt 0.375000 0.821048
vt 0.625000 0.821049
vt 0.625000 0.928951
vt 0.375000 0.928951
vt 0.375000 0.039587
vt 0.625000 0.039587
vt 0.625000 0.210413
vt 0.375000 0.210413
vt 0.375000 0.321049
vt 0.625000 0.321049
vt 0.625000 0.428951
vt 0.375000 0.428951
vt 0.625000 0.265706
vt 0.375000 0.265706
vt 0.375000 0.254091
vt 0.625000 0.254091
vt 0.375000 0.495909
vt 0.375000 0.484294
vt 0.375000 0.446407
vt 0.625000 0.446407
vt 0.625000 0.466013
vt 0.375000 0.466013
vt 0.375000 0.539587
vt 0.625000 0.539587
vt 0.625000 0.710413
vt 0.375000 0.710413
vt 0.375000 0.944665
vt 0.625000 0.944665
vt 0.625000 0.960595
vt 0.375000 0.960595
vt 0.624999 0.987150
vt 0.375000 0.987150
vt 0.125000 0.539587
vt 0.128126 0.530832
vt 0.134724 0.521956
vt 0.143625 0.514534
vt 0.151084 0.510378
vt 0.164405 0.505418
vt 0.180335 0.501742
vt 0.196049 0.500000
vt 0.303951 0.500000
vt 0.319665 0.501742
vt 0.335595 0.505418
vt 0.348916 0.510378
vt 0.356375 0.514534
vt 0.365276 0.521956
vt 0.371874 0.530832
vt 0.371874 0.719168
vt 0.365276 0.728044
vt 0.356375 0.735466
vt 0.348916 0.739622
vt 0.335595 0.744582
vt 0.319665 0.748258
vt 0.303951 0.750000
vt 0.196049 0.750000
vt 0.180335 0.748258
vt 0.164405 0.744582
vt 0.151084 0.739622
vt 0.143625 0.735466
vt 0.134724 0.728044
vt 0.128126 0.719168
vt 0.125000 0.710413
vt 0.625000 0.981375
vt 0.625000 0.973916
vt 0.625000 0.973916
vt 0.625000 0.981375
vt 0.625000 0.446407
vt 0.625000 0.466013
vt 0.625000 0.803593
vt 0.625000 0.821049
vt 0.625000 0.032574
vt 0.625000 0.039587
vt 0.625000 0.321049
vt 0.625000 0.428951
vt 0.625000 0.265706
vt 0.625000 0.283987
vt 0.625000 0.303593
vt 0.625000 0.254091
vt 0.625000 0.512232
vt 0.625000 0.222294
vt 0.625000 0.237768
vt 0.625000 0.783987
vt 0.625000 0.210413
vt 0.625000 0.944665
vt 0.625000 0.960595
vt 0.625000 0.754091
vt 0.625000 0.765706
vt 0.625000 0.928951
vt 0.624999 0.987150
vt 0.625000 0.722294
vt 0.625000 0.737768
vt 0.625000 0.027374
vt 0.625000 0.710413
vt 0.625000 0.539587
vt 0.625000 0.527706
vt 0.625000 0.265706
vt 0.625000 0.283987
vt 0.625000 0.027374
vt 0.625000 0.032574
vt 0.625000 0.210413
vt 0.625000 0.222294
vt 0.625000 0.039587
vt 0.625000 0.237768
vt 0.625000 0.254091
vt 0.625000 0.539587
vt 0.625000 0.710413
vt 0.625000 0.527706
vt 0.625000 0.512232
vt 0.625000 0.495909
vt 0.625000 0.484294
vt 0.625000 0.428951
vt 0.625000 0.446407
vt 0.625000 0.466013
vt 0.625000 0.321049
vt 0.625000 0.803593
vt 0.625000 0.821049
vt 0.625000 0.303593
vt 0.625000 0.765706
vt 0.625000 0.783987
vt 0.625000 0.928951
vt 0.625000 0.944665
vt 0.625000 0.722294
vt 0.625000 0.960595
vt 0.625000 0.737768
vt 0.625000 0.754091
vt 0.624999 0.987150
vt 0.628126 0.530832
vt 0.634724 0.521956
vt 0.643625 0.514534
vt 0.651084 0.510378
vt 0.664405 0.505418
vt 0.680335 0.501742
vt 0.696049 0.500000
vt 0.803951 0.500000
vt 0.819665 0.501742
vt 0.835595 0.505418
vt 0.848916 0.510378
vt 0.856375 0.514534
vt 0.865276 0.521956
vt 0.871874 0.530832
vt 0.875000 0.539587
vt 0.875000 0.710413
vt 0.871874 0.719168
vt 0.865276 0.728044
vt 0.856375 0.735466
vt 0.848916 0.739622
vt 0.835595 0.744582
vt 0.819665 0.748258
vt 0.803952 0.750000
vt 0.696049 0.750000
vt 0.680335 0.748258
vt 0.664405 0.744582
vt 0.651084 0.739622
vt 0.643625 0.735466
vt 0.634724 0.728044
vt 0.628126 0.719168
vn 0.0000 1.0000 0.0000
vn 0.6632 0.6504 -0.3703
vn -0.2176 0.6716 -0.7082
vn -0.6632 0.6504 -0.3703
vn 0.2176 0.6716 0.7082
vn -0.4368 0.6801 0.5887
vn 0.6632 0.6504 0.3703
vn 0.4368 0.6801 0.5887
vn -0.6632 0.6504 0.3703
vn 0.0000 0.6480 0.7617
vn -0.8427 0.5384 0.0000
vn 0.0000 0.6480 -0.7617
vn -0.4368 0.6801 -0.5887
vn 0.4368 0.6801 -0.5887
vn 0.2176 0.6716 -0.7082
vn 0.8427 0.5384 0.0000
vn -0.2176 0.6716 0.7082
vn -0.1095 0.6614 0.7420
vn -0.3263 0.6784 0.6582
vn -0.7662 0.6089 0.2054
vn -0.5504 0.6719 0.4957
vn -0.1095 0.6614 -0.7420
vn -0.3263 0.6784 -0.6582
vn -0.7662 0.6089 -0.2054
vn -0.5504 0.6719 -0.4957
vn 0.7662 0.6089 -0.2054
vn 0.5504 0.6719 -0.4957
vn 0.1095 0.6614 -0.7420
vn 0.3263 0.6784 -0.6582
vn 0.1095 0.6614 0.7420
vn 0.3263 0.6784 0.6582
vn 0.7662 0.6089 0.2054
vn 0.5504 0.6719 0.4957
vn 0.0000 -1.0000 0.0000
vn 0.5958 0.0000 -0.8031
vn 0.4442 0.0000 0.8959
vn 0.8731 0.0000 -0.4875
vn 0.9659 0.0000 0.2590
vn 1.0000 0.0000 0.0000
vn 0.7431 0.0000 0.6692
vn -1.0000 0.0000 0.0000
vn -0.9659 0.0000 0.2590
vn -0.8731 0.0000 0.4875
vn -0.7431 0.0000 0.6692
vn -0.5958 0.0000 0.8031
vn -0.1460 0.0000 0.9893
vn -0.2938 0.0000 0.9559
vn -0.4442 0.0000 0.8959
vn 0.0000 0.0000 1.0000
vn -0.1460 0.0000 -0.9893
vn 0.2938 0.0000 0.9559
vn -0.4442 0.0000 -0.8959
vn 0.1460 0.0000 -0.9893
vn 0.5958 0.0000 0.8031
vn -0.9659 0.0000 -0.2590
vn 0.4442 0.0000 -0.8959
vn 0.8731 0.0000 0.4875
vn -0.7431 0.0000 -0.6692
vn 0.9659 0.0000 -0.2590
vn -0.2938 0.0000 -0.9559
vn 0.2938 0.0000 -0.9559
vn 0.7431 0.0000 -0.6692
vn -0.5958 0.0000 -0.8031
vn 0.0000 0.0000 -1.0000
vn 0.1460 0.0000 0.9893
vn -0.8731 0.0000 -0.4875
usemtl Material.002
s off
f 60/1/1 61/2/1 88/3/1 83/4/1
f 58/5/2 55/6/2 54/7/2 59/8/2
f 26/9/3 23/10/3 22/11/3 27/12/3
f 18/13/4 31/14/4 30/15/4 19/16/4
f 42/17/5 39/18/5 38/19/5 43/20/5
f 4/21/6 13/22/6 12/23/6 5/24/6
f 34/25/7 47/26/7 46/27/7 35/28/7
f 44/29/8 37/30/8 36/31/8 45/32/8
f 10/33/9 7/34/9 6/35/9 11/36/9
f 40/37/10 41/38/10 16/39/10 1/40/10
f 8/41/11 9/42/11 32/43/11 17/44/11
f 24/45/12 25/46/12 64/47/12 49/48/12
f 28/49/13 21/50/13 20/51/13 29/52/13
f 60/1/14 53/53/14 52/54/14 61/2/14
f 50/55/15 63/56/15 62/57/15 51/58/15
f 56/59/16 57/60/16 48/61/16 33/62/16
f 2/63/17 15/64/17 14/65/17 3/66/17
f 1/40/18 16/39/18 15/64/18 2/63/18
f 13/22/19 4/21/19 3/66/19 14/65/19
f 9/42/20 8/41/20 7/34/20 10/33/20
f 5/24/21 12/23/21 11/67/21 6/68/21
f 25/46/22 24/45/22 23/10/22 26/9/22
f 21/50/23 28/49/23 27/12/23 22/11/23
f 17/44/24 32/43/24 31/14/24 18/13/24
f 29/52/25 20/51/25 19/16/25 30/15/25
f 57/60/26 56/59/26 55/6/26 58/5/26
f 53/53/27 60/1/27 59/8/27 54/7/27
f 49/48/28 64/47/28 63/56/28 50/55/28
f 61/2/29 52/54/29 51/58/29 62/57/29
f 41/38/30 40/37/30 39/18/30 42/17/30
f 37/30/31 44/29/31 43/20/31 38/19/31
f 33/62/32 48/61/32 47/26/32 34/25/32
f 45/32/33 36/31/33 35/28/33 46/27/33
f 17/69/34 18/70/34 19/71/34 20/72/34 21/73/34 22/74/34 23/75/34 24/76/34 49/77/34 50/78/34 51/79/34 52/80/34 53/81/34 54/82/34 55/83/34 56/59/34 33/62/34 34/84/34 35/85/34 36/86/34 37/87/34 38/88/34 39/89/34 40/90/34 1/91/34 2/92/34 3/93/34 4/94/34 5/95/34 6/96/34 7/97/34 8/98/34
f 71/99/35 68/100/35 100/101/35 103/102/35
f 62/57/1 63/56/1 86/103/1 87/104/1
f 41/38/1 42/17/1 89/105/1 90/106/1
f 9/42/1 10/33/1 69/107/1 70/108/1
f 64/47/1 25/46/1 74/109/1 85/110/1
f 27/12/1 28/49/1 75/111/1 76/112/1
f 26/9/1 27/12/1 76/112/1 73/113/1
f 28/49/1 29/52/1 80/114/1 75/111/1
f 59/8/1 60/1/1 83/4/1 84/115/1
f 30/15/1 31/14/1 78/116/1 79/117/1
f 42/17/1 43/20/1 92/118/1 89/105/1
f 31/14/1 32/43/1 77/119/1 78/116/1
f 14/65/1 15/64/1 66/120/1 67/121/1
f 44/29/1 45/32/1 96/122/1 91/123/1
f 43/20/1 44/29/1 91/123/1 92/118/1
f 16/39/1 41/38/1 90/106/1 65/124/1
f 11/67/1 12/23/1 71/99/1 72/125/1
f 46/27/1 47/26/1 94/126/1 95/127/1
f 29/52/1 30/15/1 79/117/1 80/114/1
f 12/23/1 13/22/1 68/100/1 71/99/1
f 63/56/1 64/47/1 85/110/1 86/103/1
f 15/64/1 16/39/1 65/124/1 66/120/1
f 10/33/1 11/36/1 72/128/1 69/107/1
f 25/46/1 26/9/1 73/113/1 74/109/1
f 32/43/1 9/42/1 70/108/1 77/119/1
f 61/2/1 62/57/1 87/104/1 88/3/1
f 13/22/1 14/65/1 67/121/1 68/100/1
f 47/26/1 48/61/1 93/129/1 94/126/1
f 48/61/1 57/60/1 82/130/1 93/129/1
f 57/60/1 58/5/1 81/131/1 82/130/1
f 58/5/1 59/8/1 84/115/1 81/131/1
f 45/32/1 46/27/1 95/127/1 96/122/1
f 76/112/36 75/111/36 107/132/36 108/133/36
f 69/107/37 72/128/37 104/134/37 101/135/37
f 78/116/38 77/119/38 109/136/38 110/137/38
f 77/119/39 70/108/39 102/138/39 109/136/39
f 80/114/40 79/117/40 111/139/40 112/140/40
f 93/129/41 82/130/41 114/141/41 125/142/41
f 82/130/42 81/131/42 113/143/42 114/141/42
f 81/131/43 84/115/43 116/144/43 113/143/43
f 84/115/44 83/4/44 115/145/44 116/144/44
f 83/4/45 88/3/45 120/146/45 115/145/45
f 86/103/46 85/110/46 117/147/46 118/148/46
f 87/104/47 86/103/47 118/148/47 119/149/47
f 88/3/48 87/104/48 119/149/48 120/146/48
f 85/110/49 74/109/49 106/150/49 117/147/49
f 90/106/50 89/105/50 121/151/50 122/152/50
f 73/113/51 76/112/51 108/133/51 105/153/51
f 92/118/52 91/123/52 123/154/52 124/155/52
f 66/120/53 65/124/53 97/156/53 98/157/53
f 75/111/54 80/114/54 112/140/54 107/132/54
f 94/126/55 93/129/55 125/142/55 126/158/55
f 68/100/56 67/121/56 99/159/56 100/101/56
f 79/117/57 78/116/57 110/137/57 111/139/57
f 96/122/58 95/127/58 127/160/58 128/161/58
f 70/108/59 69/107/59 101/135/59 102/138/59
f 89/105/60 92/118/60 124/155/60 121/151/60
f 67/121/61 66/120/61 98/157/61 99/159/61
f 72/125/62 71/99/62 103/102/62 104/162/62
f 91/123/63 96/122/63 128/161/63 123/154/63
f 65/124/64 90/106/64 122/152/64 97/156/64
f 74/109/65 73/113/65 105/153/65 106/150/65
f 95/127/66 94/126/66 126/158/66 127/160/66
usemtl Material.003
f 114/141/1 113/163/1 116/164/1 115/165/1 120/166/1 119/167/1 118/168/1 117/169/1 106/170/1 105/171/1 108/172/1 107/173/1 112/174/1 111/175/1 110/176/1 109/177/1 102/178/1 101/179/1 104/180/1 103/181/1 100/182/1 99/183/1 98/184/1 97/185/1 122/186/1 121/187/1 124/188/1 123/189/1 128/190/1 127/191/1 126/192/1 125/142/1
